<?xml version="1.0" encoding="UTF-8"?>
<svg xmlns="http://www.w3.org/2000/svg" viewBox="0 0 1000 720" font-family="Helvetica, Arial, sans-serif">
  <style>
    .zone-edge { fill: #fff8e1; stroke: #f57f17; stroke-width: 2.5; stroke-dasharray: 6 4; }
    .zone-cloud { fill: #e3f2fd; stroke: #1565c0; stroke-width: 2.5; stroke-dasharray: 6 4; }
    .container { fill: #ffffff; stroke: #424242; stroke-width: 2; }
    .frontend { fill: #c8e6c9; stroke: #2e7d32; stroke-width: 2; }
    .backend { fill: #bbdefb; stroke: #1565c0; stroke-width: 2; }
    .data { fill: #ffe0b2; stroke: #ef6c00; stroke-width: 2; }
    .broker { fill: #f8bbd0; stroke: #ad1457; stroke-width: 2; }
    .worker { fill: #d1c4e9; stroke: #4527a0; stroke-width: 2; }
    .label-zone { font-weight: bold; font-size: 14px; }
    .label-title { font-weight: bold; font-size: 12px; text-anchor: middle; }
    .label-sub { font-size: 10px; text-anchor: middle; fill: #555; }
    .arrow { stroke: #2c3e50; stroke-width: 1.3; fill: none; marker-end: url(#arrow); }
    .label-arrow { font-size: 9px; fill: #2c3e50; }
  </style>
  <defs>
    <marker id="arrow" markerWidth="10" markerHeight="10" refX="9" refY="3" orient="auto" markerUnits="strokeWidth">
      <path d="M0,0 L0,6 L9,3 z" fill="#2c3e50" />
    </marker>
  </defs>

  <text x="500" y="30" class="label-title" font-size="18">C4 Nível 2 — Diagrama de Containers</text>

  <!-- ZONA EDGE (OFICINA) -->
  <rect x="40" y="60" width="350" height="630" rx="10" class="zone-edge" />
  <text x="60" y="85" class="label-zone" fill="#f57f17">OFICINA (Edge)</text>

  <rect x="80" y="110" width="120" height="60" rx="6" class="container" />
  <text x="140" y="135" class="label-title">Câmeras IP</text>
  <text x="140" y="150" class="label-sub">4 unidades (RTSP)</text>

  <rect x="230" y="110" width="120" height="60" rx="6" class="container" />
  <text x="290" y="135" class="label-title">Tablets Mecânicos</text>
  <text x="290" y="150" class="label-sub">4 unidades</text>

  <rect x="80" y="200" width="270" height="60" rx="6" class="backend" />
  <text x="215" y="225" class="label-title">Edge Gateway API</text>
  <text x="215" y="245" class="label-sub">Buffer local + sync com nuvem</text>

  <rect x="80" y="290" width="270" height="60" rx="6" class="broker" />
  <text x="215" y="315" class="label-title">Mini-broker RabbitMQ</text>
  <text x="215" y="335" class="label-sub">Federation/Shovel para nuvem</text>

  <rect x="80" y="380" width="270" height="60" rx="6" class="data" />
  <text x="215" y="405" class="label-title">NAS — Vídeos Brutos</text>
  <text x="215" y="425" class="label-sub">RAID local</text>

  <rect x="80" y="470" width="270" height="50" rx="6" class="container" />
  <text x="215" y="495" class="label-title">Estoquista (Almoxarifado)</text>
  <text x="215" y="510" class="label-sub">Tablet/desktop</text>

  <rect x="80" y="550" width="270" height="50" rx="6" class="container" />
  <text x="215" y="575" class="label-title">Atendente (Recepção)</text>
  <text x="215" y="590" class="label-sub">Tablet/desktop</text>

  <text x="215" y="640" class="label-sub" fill="#f57f17">Continuidade operacional</text>
  <text x="215" y="655" class="label-sub" fill="#f57f17">mesmo sem internet</text>

  <!-- ZONA CLOUD -->
  <rect x="430" y="60" width="540" height="630" rx="10" class="zone-cloud" />
  <text x="450" y="85" class="label-zone" fill="#1565c0">NUVEM (Core)</text>

  <rect x="460" y="110" width="220" height="60" rx="6" class="frontend" />
  <text x="570" y="135" class="label-title">Frontend (Next.js)</text>
  <text x="570" y="150" class="label-sub">Portal Cliente + Portal Oficina</text>

  <rect x="710" y="110" width="220" height="60" rx="6" class="backend" />
  <text x="820" y="135" class="label-title">Backend API (Express)</text>
  <text x="820" y="150" class="label-sub">REST + EventPublisher</text>

  <rect x="460" y="200" width="220" height="60" rx="6" class="data" />
  <text x="570" y="225" class="label-title">PostgreSQL</text>
  <text x="570" y="245" class="label-sub">Metadados, OS, peças, audit</text>

  <rect x="710" y="200" width="220" height="60" rx="6" class="data" />
  <text x="820" y="225" class="label-title">Storage S3/R2</text>
  <text x="820" y="245" class="label-sub">Vídeos definitivos</text>

  <rect x="460" y="290" width="470" height="80" rx="6" class="broker" />
  <text x="695" y="315" class="label-title" font-size="14">RabbitMQ (Cluster)</text>
  <text x="695" y="335" class="label-sub">5 exchanges (Topic, Fanout, Direct, Headers, DLX)</text>
  <text x="695" y="350" class="label-sub">~10 filas, ~20 routing keys do domínio</text>

  <text x="695" y="395" class="label-title" fill="#4527a0">Workers (consumers)</text>

  <rect x="460" y="410" width="100" height="50" rx="6" class="worker" />
  <text x="510" y="430" class="label-title" font-size="11">Media</text>
  <text x="510" y="445" class="label-sub">Processa vídeos</text>

  <rect x="570" y="410" width="100" height="50" rx="6" class="worker" />
  <text x="620" y="430" class="label-title" font-size="11">Notification</text>
  <text x="620" y="445" class="label-sub">Avisos</text>

  <rect x="680" y="410" width="100" height="50" rx="6" class="worker" />
  <text x="730" y="430" class="label-title" font-size="11">Inventory</text>
  <text x="730" y="445" class="label-sub">Estoque</text>

  <rect x="790" y="410" width="100" height="50" rx="6" class="worker" />
  <text x="840" y="430" class="label-title" font-size="11">Audit</text>
  <text x="840" y="445" class="label-sub">Trilha completa</text>

  <rect x="460" y="475" width="220" height="50" rx="6" class="worker" />
  <text x="570" y="500" class="label-title">Report Worker (futuro)</text>

  <rect x="710" y="475" width="220" height="50" rx="6" class="worker" />
  <text x="820" y="500" class="label-title">Billing Worker (futuro)</text>

  <text x="695" y="560" class="label-sub" fill="#1565c0">Escalabilidade horizontal:</text>
  <text x="695" y="575" class="label-sub" fill="#1565c0">cada worker pode rodar em N instâncias</text>

  <!-- Conexões internas (cloud) -->
  <line x1="570" y1="170" x2="570" y2="200" class="arrow" />
  <line x1="820" y1="170" x2="820" y2="200" class="arrow" />
  <line x1="820" y1="170" x2="680" y2="135" class="arrow" />
  <line x1="820" y1="260" x2="820" y2="290" class="arrow" />
  <line x1="680" y1="240" x2="710" y2="240" class="arrow" />

  <!-- Workers -> Broker -->
  <line x1="510" y1="410" x2="510" y2="370" class="arrow" />
  <line x1="620" y1="410" x2="620" y2="370" class="arrow" />
  <line x1="730" y1="410" x2="730" y2="370" class="arrow" />
  <line x1="840" y1="410" x2="840" y2="370" class="arrow" />

  <!-- Setas edge -> cloud (federation) -->
  <line x1="215" y1="290" x2="460" y2="320" class="arrow" stroke="#1565c0" stroke-dasharray="4 3" />
  <text x="320" y="280" class="label-arrow" fill="#1565c0">federation</text>

  <line x1="215" y1="380" x2="710" y2="230" class="arrow" stroke="#ef6c00" stroke-dasharray="4 3" />
  <text x="380" y="345" class="label-arrow" fill="#ef6c00">sync vídeos</text>

  <line x1="290" y1="170" x2="460" y2="140" class="arrow" />
  <text x="380" y="155" class="label-arrow">portal web</text>
</svg>
