<?xml version="1.0" encoding="UTF-8"?>
<svg xmlns="http://www.w3.org/2000/svg" viewBox="0 0 900 600" font-family="Helvetica, Arial, sans-serif">
  <style>
    .actor { fill: #fff3cd; stroke: #856404; stroke-width: 2; }
    .system { fill: #cfe2ff; stroke: #084298; stroke-width: 2.5; }
    .external { fill: #e2e3e5; stroke: #41464b; stroke-width: 1.5; stroke-dasharray: 4 3; }
    .label-title { font-weight: bold; font-size: 13px; fill: #084298; text-anchor: middle; }
    .label-actor { font-weight: bold; font-size: 12px; fill: #856404; text-anchor: middle; }
    .label-ext { font-size: 11px; fill: #41464b; text-anchor: middle; }
    .label-sub { font-size: 10px; fill: #495057; text-anchor: middle; }
    .arrow { stroke: #2c3e50; stroke-width: 1.5; fill: none; marker-end: url(#arrow); }
    .label-arrow { font-size: 9px; fill: #2c3e50; }
  </style>
  <defs>
    <marker id="arrow" markerWidth="10" markerHeight="10" refX="9" refY="3" orient="auto" markerUnits="strokeWidth">
      <path d="M0,0 L0,6 L9,3 z" fill="#2c3e50" />
    </marker>
  </defs>

  <text x="450" y="30" class="label-title" font-size="18">C4 Nível 1 — Diagrama de Contexto</text>

  <!-- Atores -->
  <g>
    <rect x="40" y="80" width="120" height="60" rx="8" class="actor" />
    <text x="100" y="105" class="label-actor">Cliente</text>
    <text x="100" y="125" class="label-sub">Acompanha sua OS</text>
  </g>
  <g>
    <rect x="40" y="170" width="120" height="60" rx="8" class="actor" />
    <text x="100" y="195" class="label-actor">Mecânico</text>
    <text x="100" y="215" class="label-sub">Executa serviço</text>
  </g>
  <g>
    <rect x="40" y="260" width="120" height="60" rx="8" class="actor" />
    <text x="100" y="285" class="label-actor">Atendente</text>
    <text x="100" y="305" class="label-sub">Registra OS</text>
  </g>
  <g>
    <rect x="40" y="350" width="120" height="60" rx="8" class="actor" />
    <text x="100" y="375" class="label-actor">Gestor</text>
    <text x="100" y="395" class="label-sub">Dashboard</text>
  </g>
  <g>
    <rect x="40" y="440" width="120" height="60" rx="8" class="actor" />
    <text x="100" y="465" class="label-actor">Administrador</text>
    <text x="100" y="485" class="label-sub">Configurações</text>
  </g>

  <!-- Sistema central -->
  <rect x="280" y="200" width="320" height="180" rx="10" class="system" />
  <text x="440" y="240" class="label-title" font-size="16">Sistema de Acompanhamento</text>
  <text x="440" y="260" class="label-title" font-size="16">de Manutenção Veicular</text>
  <text x="440" y="290" class="label-sub">Plataforma distribuída orientada a eventos</text>
  <text x="440" y="310" class="label-sub">com arquitetura híbrida edge-cloud</text>
  <text x="440" y="340" class="label-sub">RabbitMQ + Postgres + Workers + Frontend</text>

  <!-- Sistemas externos -->
  <g>
    <rect x="700" y="80" width="160" height="50" rx="6" class="external" />
    <text x="780" y="105" class="label-ext">Câmeras IP</text>
    <text x="780" y="120" class="label-sub">RTSP / HTTP</text>
  </g>
  <g>
    <rect x="700" y="150" width="160" height="50" rx="6" class="external" />
    <text x="780" y="175" class="label-ext">Storage S3/R2</text>
    <text x="780" y="190" class="label-sub">Vídeos definitivos</text>
  </g>
  <g>
    <rect x="700" y="220" width="160" height="50" rx="6" class="external" />
    <text x="780" y="245" class="label-ext">Email / SMS / WhatsApp</text>
    <text x="780" y="260" class="label-sub">Gateway notificação</text>
  </g>
  <g>
    <rect x="700" y="290" width="160" height="50" rx="6" class="external" />
    <text x="780" y="315" class="label-ext">ERP / Estoque</text>
    <text x="780" y="330" class="label-sub">Peças e fornecedores</text>
  </g>
  <g>
    <rect x="700" y="360" width="160" height="50" rx="6" class="external" />
    <text x="780" y="385" class="label-ext">Pagamento</text>
    <text x="780" y="400" class="label-sub">Cartão / Pix</text>
  </g>
  <g>
    <rect x="700" y="430" width="160" height="50" rx="6" class="external" />
    <text x="780" y="455" class="label-ext">NF-e (futuro)</text>
    <text x="780" y="470" class="label-sub">Emissão fiscal</text>
  </g>

  <!-- Setas atores -> sistema -->
  <line x1="160" y1="110" x2="280" y2="240" class="arrow" />
  <line x1="160" y1="200" x2="280" y2="280" class="arrow" />
  <line x1="160" y1="290" x2="280" y2="290" class="arrow" />
  <line x1="160" y1="380" x2="280" y2="320" class="arrow" />
  <line x1="160" y1="470" x2="280" y2="350" class="arrow" />

  <!-- Setas sistema -> sistemas externos -->
  <line x1="600" y1="240" x2="700" y2="105" class="arrow" />
  <line x1="600" y1="260" x2="700" y2="175" class="arrow" />
  <line x1="600" y1="280" x2="700" y2="245" class="arrow" />
  <line x1="600" y1="300" x2="700" y2="315" class="arrow" />
  <line x1="600" y1="320" x2="700" y2="385" class="arrow" />
  <line x1="600" y1="340" x2="700" y2="455" class="arrow" />

  <text x="450" y="555" class="label-sub">Atores interagem via portal web. Sistema integra-se a câmeras, storage, gateways de notificação e sistemas externos.</text>
</svg>
